# xmcd CD database file
#
# Track frame offsets:
#	182
#	46275
#	77875
#	106152
#	136332
#	174707
#	207602
#	244827
#
# Disc length: 3732 seconds
#
# Revision: 0
# Processed by: cddbd v1.5.1PL0 Copyright (c) Steve Scherf et al.
# Submitted via: CDex 1.51
#
DISCID=6e0e9208
DTITLE=Senses - Contentment vol 2
DYEAR=1900
DGENRE=New Age
TTITLE0=01/ All the Time in the World
TTITLE1=02/ Immaculate Youth
TTITLE2=03/ On Every Street
TTITLE3=04/ Endless Summer
TTITLE4=05 Melancholy
TTITLE5=06/ Work in Progress
TTITLE6=07/ Souvenirs of Life
TTITLE7=08/ Good Night [part 2]
EXTD=
EXTT0=
EXTT1=
EXTT2=
EXTT3=
EXTT4=
EXTT5=
EXTT6=
EXTT7=
PLAYORDER=
